# xmcd
#
# Track frame offsets:
# 150
# 18232
# 33187
# 55762
# 70225
# 95737
# 128145
#
# Disc length: 1911 seconds
#
#
# Revision: 0
# Processed by: cddbd v1.5.2PL0 Copyright (c) Steve Scherf et al.
# Submitted via: FreeRIP 2.96 
#
DISCID=55077507
DTITLE=Full House Blues Band - Full House Blues Band
DYEAR=1999
DGENRE=Blues
TTITLE0=Harmonica Boogey
TTITLE1=Big Legged Woman
TTITLE2=Feels Like Rain
TTITLE3=Caldonia
TTITLE4=Let Me Love You Baby
TTITLE5=Can't Stop Crying
TTITLE6=Chitlins con Carne
EXTD=
EXTT0=
EXTT1=
EXTT2=
EXTT3=
EXTT4=
EXTT5=
EXTT6=
PLAYORDER=
